<svg xmlns="http://www.w3.org/2000/svg" width="383.582" height="383.582" fill="#fff"><path d="M297.125 337.67c-3.672-33.66-13.464-65.484-24.48-97.309-4.896-13.464-9.792-28.151-15.3-42.228 6.732-.612 13.464-2.448 20.196-3.061 2.447 0 4.896-1.224 6.12-3.672 4.283-8.567 9.18-18.972 9.18-29.375 0-3.061-1.224-5.509-2.448-7.345 1.225-1.836 1.225-4.284.612-6.731 4.284-2.448 6.731-7.956 2.448-12.853-38.557-42.84-72.828-88.739-109.548-132.804-2.448-3.06-8.568-3.06-11.016 0-37.944 44.064-54.468 100.98-85.68 148.716-1.224 1.836-1.224 4.284 0 5.508v1.836c-1.836 14.688 2.448 29.376 15.3 37.944 6.732 4.284 17.748 6.731 26.928 4.896-7.956 46.513-15.3 93.024-25.092 139.536v.612c-.612.612 0 1.836 0 3.06.612 1.836 1.224 3.672 3.06 4.896 7.344 11.628 22.644 34.884 31.824 34.271 21.42-1.224 42.84-1.224 64.26-2.447 30.601-1.836 80.173-4.284 92.412-39.168.612.003 1.835-1.833 1.224-4.282zm-23.868-156.671c-6.732.612-13.464 1.224-19.584 3.06-.612 0-1.225.612-1.836.612-4.896-9.792-9.792-19.584-15.3-28.152 14.075 1.225 28.764 1.836 42.84 1.836 1.836 7.344-3.061 15.911-6.12 22.644zm-148.104 7.956c-4.896 1.224-10.404 0-14.688-1.836-9.18-4.284-13.464-13.464-14.076-22.645 7.344.612 15.3 1.225 22.644 1.836 4.896 0 10.404 1.225 15.912.612-1.224 6.732-2.448 14.076-3.672 20.808-1.836 0-3.672.612-6.12 1.225zm21.42-26.928c1.836-3.061 1.224-7.345-1.836-9.181-7.344-4.284-17.136-1.836-25.092-1.836-6.12 0-12.24.612-18.36 1.225 31.212-40.393 45.288-91.188 77.112-131.58 33.048 41.004 65.484 83.844 100.98 123.624-17.137 0-34.884.611-52.021 2.447-3.06.612-4.284 2.448-4.896 4.284-1.225 1.225-1.836 3.061-1.225 4.896 7.956 29.987 25.093 58.752 36.108 88.128 9.792 25.703 16.524 52.632 22.644 78.947-47.124-17.748-110.16 9.792-159.731 12.24 12.853-56.303 23.257-115.054 26.317-173.194zm41.615 206.243c-14.076.612-28.152.612-41.616 1.225-7.956.611-17.748-8.568-25.092-17.137 53.856-.611 104.652-20.195 158.508-12.24-11.628 28.764-67.319 26.928-91.8 28.152z"/></svg>